<svg width="243" height="258" viewBox="0 0 243 258" fill="none" xmlns="http://www.w3.org/2000/svg">
<g clip-path="url(#clip0_65_11191)">
<path d="M242.37 94.08C242.37 58.34 213.4 29.37 177.66 29.37C177.1 29.37 176.54 29.4 175.98 29.41C164.42 11.71 144.46 0 121.75 0C97.17 0 75.79 13.7 64.84 33.89C64.8 33.89 64.76 33.89 64.72 33.89C28.97 33.88 0 62.86 0 98.6C0 120.07 10.46 139.09 26.56 150.86C26.14 161.9 28.54 173.2 34.11 183.65C41.92 198.32 54.59 208.75 69.06 214.02L68.68 234.07C68.68 234.07 61.69 236.96 53.37 242.67C47.17 246.93 50.24 256.66 57.76 256.66H98.95C101.97 256.66 104.71 254.89 105.95 252.14L111.15 214.78C114.71 213.62 118.22 212.16 121.64 210.34C122.66 209.8 123.65 209.23 124.63 208.65C125.84 209.22 127.07 209.75 128.31 210.24L134.2 252.52C135.44 255.27 138.18 257.04 141.2 257.04H182.39C189.91 257.04 192.97 247.31 186.78 243.05C178.46 237.33 171.47 234.45 171.47 234.45L171.04 212.08C175 210.88 178.91 209.28 182.7 207.26C205.97 194.87 218.56 170.29 216.83 145.59C232.35 133.77 242.37 115.1 242.37 94.09V94.08Z" fill="url(#paint0_linear_65_11191)"/>
<path d="M156.4 143.99C173.863 143.99 188.02 129.833 188.02 112.37C188.02 94.9068 173.863 80.75 156.4 80.75C138.937 80.75 124.78 94.9068 124.78 112.37C124.78 129.833 138.937 143.99 156.4 143.99Z" fill="white"/>
<path d="M75.65 72.94C75.65 72.94 67.08 74.3 60.35 84.3" stroke="#040000" stroke-width="5" stroke-miterlimit="10" stroke-linecap="round"/>
<path d="M103.59 147.01C103.59 147.01 108.77 153.5 102.65 160.19" stroke="#040000" stroke-width="5" stroke-miterlimit="10" stroke-linecap="round"/>
<path d="M106.61 153.69C106.61 153.69 109.72 157.36 122.42 157.45" stroke="#040000" stroke-width="5" stroke-miterlimit="10" stroke-linecap="round"/>
<path d="M99.64 214.68C99.64 214.68 108.96 217.79 119.97 209.88" stroke="#040000" stroke-width="5" stroke-miterlimit="10" stroke-linecap="round"/>
<path d="M86.66 143.99C104.123 143.99 118.28 129.833 118.28 112.37C118.28 94.9068 104.123 80.75 86.66 80.75C69.1968 80.75 55.04 94.9068 55.04 112.37C55.04 129.833 69.1968 143.99 86.66 143.99Z" fill="white"/>
<path d="M91.5101 134.7C103.688 134.7 113.56 124.828 113.56 112.65C113.56 100.472 103.688 90.6 91.5101 90.6C79.3322 90.6 69.4601 100.472 69.4601 112.65C69.4601 124.828 79.3322 134.7 91.5101 134.7Z" fill="#040000"/>
<path d="M151.66 134.7C163.838 134.7 173.71 124.828 173.71 112.65C173.71 100.472 163.838 90.6 151.66 90.6C139.482 90.6 129.61 100.472 129.61 112.65C129.61 124.828 139.482 134.7 151.66 134.7Z" fill="#040000"/>
<path d="M167.42 72.94C167.42 72.94 175.99 74.3 182.72 84.3" stroke="#040000" stroke-width="5" stroke-miterlimit="10" stroke-linecap="round"/>
</g>
<defs>
<linearGradient id="paint0_linear_65_11191" x1="85.22" y1="263.59" x2="141.69" y2="1" gradientUnits="userSpaceOnUse">
<stop stop-color="#F5A800"/>
<stop offset="1" stop-color="#F8C87D"/>
</linearGradient>
<clipPath id="clip0_65_11191">
<rect width="242.37" height="257.03" fill="white"/>
</clipPath>
</defs>
</svg>
