<svg width="151" height="172" viewBox="0 0 151 172" fill="none" xmlns="http://www.w3.org/2000/svg">
<g clip-path="url(#clip0_68_12947)">
<path d="M38.3131 82.3961L-3.05176e-05 137.133L34.3638 143.211L56.8652 171.8L71.4632 88.7824L38.3131 82.3961Z" fill="#EA5958"/>
<path d="M112.512 82.3961L150.83 137.133L116.466 143.211L93.9647 171.8L79.3667 88.7824L112.512 82.3961Z" fill="#EA5958"/>
<path d="M74.7817 113.143C106.025 113.143 131.353 87.815 131.353 56.5715C131.353 25.3279 106.025 0 74.7817 0C43.5381 0 18.2102 25.3279 18.2102 56.5715C18.2102 87.815 43.5381 113.143 74.7817 113.143Z" fill="url(#paint0_linear_68_12947)"/>
<path d="M74.7816 96.8255C97.0133 96.8255 115.036 78.8032 115.036 56.5715C115.036 34.3397 97.0133 16.3174 74.7816 16.3174C52.5499 16.3174 34.5275 34.3397 34.5275 56.5715C34.5275 78.8032 52.5499 96.8255 74.7816 96.8255Z" fill="url(#paint1_linear_68_12947)"/>
<path d="M74.7816 29.8077L81.428 50.2526H102.923L85.5314 62.8904L92.173 83.3353L74.7816 70.6975L57.3902 83.3353L64.0318 62.8904L46.6404 50.2526H68.14L74.7816 29.8077Z" fill="url(#paint2_linear_68_12947)"/>
</g>
<defs>
<linearGradient id="paint0_linear_68_12947" x1="18.2102" y1="56.5715" x2="131.353" y2="56.5715" gradientUnits="userSpaceOnUse">
<stop stop-color="#F5A800"/>
<stop offset="1" stop-color="#F8C87D"/>
</linearGradient>
<linearGradient id="paint1_linear_68_12947" x1="34.5323" y1="56.5715" x2="115.036" y2="56.5715" gradientUnits="userSpaceOnUse">
<stop stop-color="#E59E00"/>
<stop offset="1" stop-color="#C79F59"/>
</linearGradient>
<linearGradient id="paint2_linear_68_12947" x1="46.6404" y1="56.5715" x2="102.923" y2="56.5715" gradientUnits="userSpaceOnUse">
<stop stop-color="#FBC700"/>
<stop offset="1" stop-color="#F9CF7F"/>
</linearGradient>
<clipPath id="clip0_68_12947">
<rect width="150.83" height="171.8" fill="white"/>
</clipPath>
</defs>
</svg>
