<svg width="41" height="26" viewBox="0 0 41 26" fill="none" xmlns="http://www.w3.org/2000/svg">
<g clip-path="url(#clip0_95_14605)">
<path d="M5.91013 24.1993C5.91013 24.1993 -3.51543 10.6219 5.8779 3.56278C7.40855 2.41278 9.96332 1.69479 11.8776 1.71191C14.3398 1.73406 17.9015 2.74006 19.8571 6.58379C21.563 9.93913 21.5066 16.5068 17.2852 16.5068C13.0639 16.5068 11.8384 7.8355 18.1956 2.91629C18.1956 2.91629 25.6283 -1.2507 30.2464 6.70363C32.7216 10.9683 32.8223 16.1916 30.6794 20.6325C29.3864 23.3121 27.3633 24.6112 25.5316 23.729C20.5127 21.3142 27.2375 8.88681 33.3792 5.98664" stroke="#F9A326" stroke-width="3.42381" stroke-miterlimit="10" stroke-linecap="round"/>
<path d="M38.244 5.80639C39.2279 5.80639 40.0254 5.00883 40.0254 4.025C40.0254 3.04116 39.2279 2.24361 38.244 2.24361C37.2602 2.24361 36.4626 3.04116 36.4626 4.025C36.4626 5.00883 37.2602 5.80639 38.244 5.80639Z" fill="#F9A326"/>
</g>
<defs>
<clipPath id="clip0_95_14605">
<rect width="40.0254" height="25.9112" fill="white"/>
</clipPath>
</defs>
</svg>
